HIERARCHY
ROOT Hips
{
	OFFSET 0.00000 0.00000 0.00000
	CHANNELS 6 Xposition Yposition Zposition Zrotation Yrotation Xrotation 
	JOINT RightUpLegDummy
	{
		OFFSET 0 0 0
		CHANNELS 3 Zrotation Yrotation Xrotation
		JOINT RightUpLeg
		{
			OFFSET -3.52197 -3.41223 0.04002
			CHANNELS 3 Zrotation Yrotation Xrotation
			JOINT RightLeg
			{
				OFFSET 0.00006 -17.42390 1.60435
				CHANNELS 3 Zrotation Yrotation Xrotation
				JOINT RightFoot
				{
					OFFSET 0.06153 -16.50078 -1.63901
					CHANNELS 3 Zrotation Yrotation Xrotation
					JOINT RightToes
					{
						OFFSET 0.00298 -1.73825 3.34613
						CHANNELS 3 Zrotation Yrotation Xrotation
						End Site
						{
							OFFSET 0.00480 -0.05416 3.85043
						}
					}
				}
			}
		}
	}
	JOINT SpineDummy
	{
		OFFSET 0 0 0
		CHANNELS 3 Zrotation Yrotation Xrotation
		JOINT Spine
		{
			OFFSET 0.00000 4.68130 0.00000
			CHANNELS 3 Zrotation Yrotation Xrotation
			JOINT Spine1
			{
				OFFSET -0.00000 10.10138 0.05002
				CHANNELS 3 Zrotation Yrotation Xrotation
				JOINT HEadDummy
				{
					OFFSET 0 0 0
					CHANNELS 3 Zrotation Yrotation Xrotation
					JOINT Head
					{
						OFFSET -0.00000 3.43865 0.00438
						CHANNELS 3 Zrotation Yrotation Xrotation
						End Site
						{
							OFFSET -0.11417 5.02924 0.98962
						}
					}
				}
				JOINT LeftShoulder1Dummy
				{
					OFFSET 0 0 0
					CHANNELS 3 Zrotation Yrotation Xrotation
					JOINT LeftShoulder1
					{
						OFFSET 3.53937 -0.14262 -0.08662
						CHANNELS 3 Zrotation Yrotation Xrotation
						JOINT LeftArm
						{
							OFFSET 4.04833 -0.00133 0.12681
							CHANNELS 3 Zrotation Yrotation Xrotation
							JOINT LeftForeArm
							{
								OFFSET 10.33880 -0.01036 -0.55515
								CHANNELS 3 Zrotation Yrotation Xrotation
								JOINT LeftHand
								{
									OFFSET 8.69677 0.07543 0.40060
									CHANNELS 3 Zrotation Yrotation Xrotation
									End Site
									{
										OFFSET 5.28377 -0.21905 0.59205
									}
								}
							}
						}
					}
				}
				JOINT RightShoulderDummy
				{
					OFFSET 0 0 0
					CHANNELS 3 Zrotation Yrotation Xrotation
					JOINT RightShoulder
					{
						OFFSET -3.53937 -0.14262 -0.08660
						CHANNELS 3 Zrotation Yrotation Xrotation
						JOINT RightArm
						{
							OFFSET -4.04833 -0.00133 0.12683
							CHANNELS 3 Zrotation Yrotation Xrotation
							JOINT RightForeArm
							{
								OFFSET -10.37987 -0.01039 -0.55511
								CHANNELS 3 Zrotation Yrotation Xrotation
								JOINT RightHand
								{
									OFFSET -8.67398 0.07538 0.40058
									CHANNELS 3 Zrotation Yrotation Xrotation
									End Site
									{
										OFFSET -5.24810 -0.21916 0.59204
									}
								}
							}
						}
					}
				}
			}
		}
	}
	JOINT LeftUpLegDummy
	{
		OFFSET 0 0 0
		CHANNELS 3 Zrotation Yrotation Xrotation
		JOINT LeftUpLeg
		{
			OFFSET 3.52197 -3.41223 0.04002
			CHANNELS 3 Zrotation Yrotation Xrotation
			JOINT LeftLeg
			{
				OFFSET -0.00012 -17.42399 1.60337
				CHANNELS 3 Zrotation Yrotation Xrotation
				JOINT LeftFoot
				{
					OFFSET -0.09972 -16.50070 -1.63802
					CHANNELS 3 Zrotation Yrotation Xrotation
					JOINT LeftToes
					{
						OFFSET -0.01575 -1.73823 3.34611
						CHANNELS 3 Zrotation Yrotation Xrotation
						End Site
						{
							OFFSET 0.03150 -0.01868 3.85031
						}
					}
				}
			}
		}
	}
}
MOTION
Frames: 12
Frame Time: 0.033333
11.8697 37.1797 43.7411 -174.0180 -35.3321 172.8560 0.0000 0.0000 0.0000 13.4736 3.8231 -21.8714 -4.2884 -7.8415 25.3400 -4.1313 0.2616 -3.6762 0.0000 -0.0000 -0.0000 0.0000 0.0000 0.0000 -2.0869 -4.8818 12.3533 15.1212 -7.2060 -4.2075 -0.0000 0.0000 -0.0000 6.0014 -7.8174 -10.1966 -0.0000 0.0000 -0.0000 -34.1537 -2.8170 2.5399 -47.3296 -16.1058 -16.5247 -9.9642 4.8933 55.8045 12.4518 -4.7415 -1.0501 -0.0000 0.0000 -0.0000 34.8223 5.0858 3.5082 38.4270 -3.9244 -24.1703 8.4463 -1.7715 18.4954 -11.1959 0.9156 -0.5998 0.0000 0.0000 0.0000 8.2132 16.0880 2.4603 -20.4367 -10.7646 58.3614 -19.4345 3.4640 8.7588 0.0000 0.0000 -0.0000
10.7688 37.5229 42.5474 -174.6670 -34.4193 173.3310 0.0000 0.0000 0.0000 12.8582 4.2781 -19.2476 -3.8488 -7.2195 25.7577 -4.6209 0.1820 -6.3358 0.0000 -0.0000 -0.0000 0.0000 0.0000 0.0000 -2.0169 -4.0493 11.9711 13.8939 -6.2023 -4.0705 -0.0000 0.0000 -0.0000 6.7310 -9.7054 -10.4036 -0.0000 0.0000 -0.0000 -34.1175 -2.6676 2.4777 -46.0148 -14.8193 -15.4348 -10.9099 4.9015 55.2074 13.9659 -5.1451 -1.2286 -0.0000 0.0000 -0.0000 34.8929 5.0895 3.5159 39.7130 -2.5808 -22.7405 8.9472 0.6605 17.8240 -11.4101 1.1933 -0.6368 0.0000 0.0000 0.0000 7.4983 14.5760 -3.8426 -12.4233 -5.3752 62.2757 -10.5954 1.3907 3.8732 0.0000 0.0000 -0.0000
9.6281 37.8364 41.3970 -175.6950 -32.6176 173.8490 0.0000 0.0000 0.0000 11.9613 4.2306 -16.1844 -3.0504 -5.5824 25.7437 -3.5553 0.0443 -8.9089 0.0000 -0.0000 -0.0000 0.0000 0.0000 0.0000 -1.5862 -2.9051 11.8611 12.0161 -4.7851 -4.0573 -0.0000 0.0000 -0.0000 6.7362 -11.2585 -10.2122 -0.0000 0.0000 -0.0000 -33.6866 -2.5103 2.3885 -45.2614 -13.0593 -14.6336 -11.7895 5.0130 51.3513 16.0649 -4.8241 -1.3791 -0.0000 0.0000 -0.0000 34.6654 5.0516 3.4807 41.1047 -0.8490 -20.8552 9.5101 3.1919 17.7102 -11.5939 1.6980 -0.6937 0.0000 0.0000 0.0000 6.7267 13.7355 -9.3267 -4.8210 -2.0356 63.9891 -4.9107 0.4767 0.1136 0.0000 0.0000 -0.0000
8.4887 38.1066 40.2771 -177.0140 -30.3450 174.2650 0.0000 0.0000 0.0000 10.5974 3.1318 -12.7726 -1.4363 -2.7820 25.4621 -2.7148 -0.0438 -11.3309 0.0000 -0.0000 -0.0000 0.0000 0.0000 0.0000 -1.2711 -1.6810 11.9867 9.9970 -3.2822 -3.8919 -0.0000 0.0000 -0.0000 6.3205 -12.2034 -9.9253 -0.0000 0.0000 -0.0000 -33.1192 -2.4332 2.3239 -44.7474 -11.2763 -14.4139 -12.4264 5.1804 45.3026 17.0906 -4.3461 -1.4047 -0.0000 0.0000 -0.0000 34.3087 4.9990 3.4285 42.1833 1.4526 -18.1722 10.0845 5.6276 18.2163 -11.3337 2.2439 -0.7270 0.0000 0.0000 0.0000 5.9603 13.0400 -13.8306 -0.5175 -0.4653 63.3719 -2.3604 0.1994 -2.3678 0.0000 0.0000 -0.0000
7.3443 38.3382 39.1251 -178.3080 -28.2414 174.4390 0.0000 0.0000 0.0000 8.9946 1.8319 -9.1789 0.1830 0.1428 25.1072 -3.2751 -0.1105 -13.4319 0.0000 -0.0000 -0.0000 0.0000 0.0000 0.0000 -1.1770 -0.6017 12.0301 8.2072 -1.9731 -3.3853 -0.0000 0.0000 -0.0000 5.8779 -12.8058 -9.6384 -0.0000 0.0000 -0.0000 -32.9120 -2.4362 2.3127 -43.9339 -10.1011 -14.9386 -12.6202 5.3087 40.1665 16.8066 -4.2191 -1.3626 -0.0000 0.0000 -0.0000 34.0915 4.9735 3.3996 42.7881 3.8228 -12.8767 10.2615 8.8860 16.5855 -11.0003 2.5730 -0.7338 0.0000 0.0000 0.0000 5.2327 11.9008 -17.2519 1.8123 0.5332 60.3023 -0.2472 0.0459 -5.4632 0.0000 0.0000 -0.0000
6.1797 38.5174 37.9312 -179.2960 -26.6083 174.3570 0.0000 0.0000 0.0000 7.5024 0.8695 -5.3886 1.1355 2.4914 24.4083 -4.1800 -0.1985 -15.2548 0.0000 -0.0000 -0.0000 0.0000 0.0000 0.0000 -1.0937 0.1876 11.9873 6.7345 -0.9868 -2.7757 -0.0000 0.0000 -0.0000 5.6204 -13.2019 -9.2037 -0.0000 0.0000 -0.0000 -33.0772 -2.4339 2.3136 -42.8843 -9.5579 -16.0022 -12.3677 5.3626 37.9384 16.2821 -4.3422 -1.3348 -0.0000 0.0000 -0.0000 34.0157 4.9746 3.3936 43.1540 5.9278 -3.4531 9.0122 13.3270 10.1683 -11.3095 2.6046 -0.7579 0.0000 0.0000 0.0000 4.7910 10.3095 -19.7688 3.6085 1.7303 55.1134 1.1061 0.0206 -8.4762 0.0000 0.0000 -0.0000
5.0083 38.6005 36.7331 -179.8480 -25.6676 174.2080 0.0000 0.0000 0.0000 6.1549 0.0173 -1.7027 1.6493 4.1248 23.4554 -4.7030 -0.2961 -17.0126 0.0000 -0.0000 -0.0000 0.0000 0.0000 0.0000 -0.8884 0.5201 11.8512 5.5534 -0.4788 -2.2578 -0.0000 0.0000 -0.0000 5.5386 -13.3038 -8.6744 -0.0000 0.0000 -0.0000 -33.2240 -2.4033 2.3185 -42.0248 -9.3011 -17.2284 -11.8595 5.3642 38.1574 16.2800 -4.4093 -1.3436 -0.0000 0.0000 -0.0000 33.9125 4.9682 3.3822 43.4871 7.8061 6.8936 6.2185 17.6308 1.6378 -11.9473 2.4485 -0.7872 0.0000 0.0000 0.0000 4.7539 8.4107 -21.6672 4.5257 2.9920 48.1016 1.5928 0.0431 -10.1054 0.0000 0.0000 -0.0000
3.8291 38.5764 35.5205 -179.9920 -25.5884 174.2100 0.0000 0.0000 0.0000 5.0099 -0.8260 1.5939 1.8731 4.8611 22.5826 -5.4506 -0.4243 -18.7743 0.0000 -0.0000 -0.0000 0.0000 0.0000 0.0000 -0.6534 0.4097 11.2914 4.7692 -0.4817 -1.6385 -0.0000 0.0000 -0.0000 5.4810 -13.2835 -8.3050 -0.0000 0.0000 -0.0000 -33.2042 -2.4186 2.3233 -41.5310 -9.2149 -18.4018 -11.2765 5.3437 39.3983 16.4274 -4.2768 -1.3384 -0.0000 0.0000 -0.0000 33.7369 4.9394 3.3557 43.6707 9.3265 14.0570 3.1956 20.8968 -5.0678 -11.7397 2.2665 -0.7564 0.0000 0.0000 0.0000 5.0112 6.2827 -22.8662 4.2728 3.9365 39.0257 1.9265 0.0567 -10.8521 0.0000 0.0000 -0.0000
2.6626 38.5738 34.2837 -179.9550 -26.0740 174.3330 0.0000 0.0000 0.0000 4.2305 -1.3403 5.2400 1.4257 4.6790 20.5153 -6.3509 -0.5460 -19.8590 0.0000 -0.0000 -0.0000 0.0000 0.0000 0.0000 -0.7629 0.2099 10.4088 4.6397 -0.7074 -0.8728 -0.0000 0.0000 -0.0000 5.3592 -13.4895 -8.1645 -0.0000 0.0000 -0.0000 -33.2203 -2.5109 2.3604 -41.2893 -9.2646 -19.4436 -10.7027 5.3138 40.9673 16.1837 -4.0827 -1.2921 -0.0000 0.0000 -0.0000 33.6151 4.9132 3.3350 43.3806 10.1142 16.4535 1.2481 23.5193 -8.2449 -10.5953 2.2085 -0.6750 0.0000 0.0000 0.0000 5.3306 4.2890 -22.9443 3.3454 4.6119 27.5404 1.8149 0.0653 -11.2131 0.0000 0.0000 -0.0000
1.5492 38.6382 33.0687 179.9790 -26.4927 174.4550 0.0000 0.0000 0.0000 3.6372 -1.4491 9.5422 0.5148 4.0341 16.8267 -6.5545 -0.5636 -19.8835 0.0000 -0.0000 -0.0000 0.0000 0.0000 0.0000 -1.4811 0.2425 9.8297 5.1215 -0.8061 -0.3499 -0.0000 0.0000 -0.0000 5.3093 -13.9262 -8.0877 -0.0000 0.0000 -0.0000 -33.3722 -2.6016 2.4053 -41.1706 -9.1635 -20.2477 -10.2126 5.2737 42.8266 15.5790 -4.0115 -1.2328 -0.0000 0.0000 -0.0000 33.6838 4.9227 3.3446 42.5644 10.1771 14.8815 0.9555 25.6101 -7.8452 -10.0211 2.3984 -0.6525 0.0000 0.0000 0.0000 5.4111 3.0227 -21.7853 2.1589 4.9569 14.4657 1.2021 0.0647 -11.1294 0.0000 0.0000 -0.0000
0.4094 38.5887 31.8427 179.8120 -26.5199 174.6310 0.0000 0.0000 0.0000 2.8692 -1.3268 13.2100 -0.0633 3.3079 14.4207 -6.1560 -0.5273 -19.7788 0.0000 -0.0000 -0.0000 0.0000 0.0000 0.0000 -2.2716 0.4327 9.4814 5.5233 -0.6938 -0.1808 -0.0000 0.0000 -0.0000 5.4841 -14.3270 -7.9948 -0.0000 0.0000 -0.0000 -33.5185 -2.6238 2.4230 -41.0924 -8.6869 -20.8050 -9.8505 5.2246 44.8764 14.8073 -4.1315 -1.1837 -0.0000 0.0000 -0.0000 33.9350 4.9652 3.3829 41.7570 9.9391 13.5379 0.9743 26.5058 -7.3255 -10.8999 2.7291 -0.7406 0.0000 0.0000 0.0000 5.1681 2.5770 -20.2612 0.9982 4.3976 3.2290 0.5334 0.0653 -11.1090 0.0000 0.0000 -0.0000
-0.8688 38.3898 30.5519 179.7160 -26.2844 174.8900 0.0000 0.0000 0.0000 1.8778 -0.7265 15.5148 -0.0938 2.4964 15.0441 -5.4682 -0.4741 -19.7483 0.0000 -0.0000 -0.0000 0.0000 0.0000 0.0000 -2.3958 0.5854 8.9489 5.2617 -0.4635 -0.1278 -0.0000 0.0000 -0.0000 5.7521 -14.6400 -7.9847 -0.0000 0.0000 -0.0000 -33.6212 -2.6095 2.4238 -41.0026 -8.0229 -21.3596 -9.5017 5.1739 46.8729 14.0628 -4.3321 -1.1449 -0.0000 0.0000 -0.0000 34.1988 5.0069 3.4223 41.2952 9.6216 13.1697 0.9401 25.7206 -7.6127 -11.9875 2.7890 -0.8221 0.0000 0.0000 0.0000 4.8438 2.0380 -19.6821 0.4115 3.3905 -1.5568 -0.0563 0.0680 -11.2046 0.0000 0.0000 -0.0000
